<svg xmlns="http://www.w3.org/2000/svg" xmlns:xlink="http://www.w3.org/1999/xlink" preserveAspectRatio="xMidYMid" width="227" height="227" viewBox="0 0 227 227">
  <defs>
    <style>
      .cls-1 {
        fill: #F91818;
        fill-rule: evenodd;
      }
    </style>
  </defs>
  <path d="M39.984,-0.000 L-0.000,59.000 L49.000,59.000 L81.000,0.000 L39.984,-0.000 ZM62.000,59.000 L165.000,59.000 C165.000,59.000 136.513,8.015 133.000,0.000 C120.340,0.000 106.556,-0.000 93.896,-0.000 C87.161,11.903 62.000,59.000 62.000,59.000 ZM187.242,-0.000 C193.164,8.072 219.874,50.724 226.000,59.000 C210.481,59.000 194.519,59.000 179.000,59.000 C171.266,45.847 150.734,8.153 146.000,0.000 C157.843,0.000 184.995,-0.000 187.242,-0.000 ZM101.000,220.000 L-0.000,72.000 C-0.000,72.000 34.707,72.000 49.000,72.000 C57.148,91.808 101.000,220.000 101.000,220.000 ZM127.000,220.000 L179.000,72.000 L226.000,72.000 L127.000,220.000 ZM62.000,72.000 L165.000,72.000 L114.000,227.000 L62.000,72.000 Z" class="cls-1"/>
</svg>