<?xml version="1.0" encoding="UTF-8" standalone="no"?>
<svg xmlns:dc="http://purl.org/dc/elements/1.1/" xmlns:cc="http://creativecommons.org/ns#" xmlns:rdf="http://www.w3.org/1999/02/22-rdf-syntax-ns#" xmlns:svg="http://www.w3.org/2000/svg" xmlns="http://www.w3.org/2000/svg" xmlns:sodipodi="http://sodipodi.sourceforge.net/DTD/sodipodi-0.dtd" xmlns:inkscape="http://www.inkscape.org/namespaces/inkscape" version="1.0" width="305.62595pt" height="298.43787pt" viewBox="0 0 305.62595 298.43787" preserveAspectRatio="xMidYMid meet" id="svg70" sodipodi:docname="icono-livechat.svg" inkscape:version="1.0.2 (e86c870879, 2021-01-15)">
  <metadata id="metadata76">
    <rdf:RDF>
      <cc:Work rdf:about="">
        <dc:format>image/svg+xml</dc:format>
        <dc:type rdf:resource="http://purl.org/dc/dcmitype/StillImage"/>
        <dc:title/>
      </cc:Work>
    </rdf:RDF>
  </metadata>
  <defs id="defs74"/>
  <sodipodi:namedview pagecolor="#ffffff" bordercolor="#666666" borderopacity="1" objecttolerance="10" gridtolerance="10" guidetolerance="10" inkscape:pageopacity="0" inkscape:pageshadow="2" inkscape:window-width="1920" inkscape:window-height="1128" id="namedview72" showgrid="false" fit-margin-top="0" fit-margin-left="0" fit-margin-right="0" fit-margin-bottom="0" inkscape:zoom="1.42875" inkscape:cx="203.75063" inkscape:cy="255.11017" inkscape:window-x="0" inkscape:window-y="0" inkscape:window-maximized="1" inkscape:current-layer="svg70"/>
  <g transform="matrix(0.1,0,0,-0.1,-147.18703,306.83787)" fill="#000000" stroke="none" id="g68" style="fill:#ffffff">
    <path d="m 2760,3059 c -509,-58 -866,-303 -1033,-709 -61,-147 -106,-369 -107,-522 v -66 l -58,-59 c -35,-35 -63,-74 -71,-98 -18,-57 -26,-324 -12,-415 18,-114 78,-192 176,-230 17,-7 89,-14 160,-17 l 130,-6 27,-66 c 64,-155 168,-308 298,-439 153,-154 345,-272 526,-324 113,-32 295,-32 408,0 181,52 373,170 526,324 130,131 234,284 298,439 l 27,66 130,6 c 71,3 144,10 160,17 98,38 158,116 176,230 14,91 6,358 -12,415 -8,24 -36,63 -71,98 l -58,59 v 66 c -1,153 -46,375 -107,522 -169,411 -525,652 -1045,709 -112,13 -358,12 -468,0 z m 548,-174 c 564,-95 860,-427 907,-1018 l 7,-88 -52,3 -53,3 -18,87 c -117,583 -503,898 -1099,898 -596,0 -982,-315 -1099,-898 l -18,-87 -53,-3 -52,-3 7,88 c 20,251 83,448 195,613 151,221 420,368 745,409 50,6 101,13 115,15 54,10 380,-4 468,-19 z m -680,-754 c 29,-38 77,-92 109,-121 105,-96 182,-136 429,-220 98,-34 194,-71 212,-82 17,-11 32,-15 32,-9 0,15 -21,60 -48,105 l -24,39 59,-7 c 157,-18 358,-85 468,-157 90,-58 89,-56 82,-287 -5,-185 -26,-290 -87,-435 -121,-292 -374,-541 -658,-648 -80,-30 -96,-33 -202,-33 -103,0 -123,3 -196,30 -174,64 -356,196 -477,344 -37,46 -66,84 -65,85 2,2 48,-12 103,-31 64,-21 148,-39 230,-50 124,-16 130,-18 160,-50 113,-120 364,-105 453,26 19,28 23,45 20,86 -3,29 -13,61 -24,76 -88,117 -318,132 -436,29 l -44,-40 -80,10 c -125,15 -240,46 -328,88 -92,43 -179,109 -201,152 -33,62 -57,203 -62,355 l -6,150 64,18 c 97,27 176,74 254,151 113,114 175,241 198,411 6,46 12,84 13,84 1,0 24,-31 52,-69 z" id="path62" style="fill:#ffffff"/>
    <path d="m 2526,1557 c -104,-59 -99,-220 8,-271 96,-45 209,16 223,122 17,123 -121,212 -231,149 z" id="path64" style="fill:#ffffff"/>
    <path d="m 3317,1558 c -49,-29 -82,-94 -74,-150 19,-138 200,-187 279,-75 30,42 35,121 10,167 -40,73 -141,100 -215,58 z" id="path66" style="fill:#ffffff"/>
  </g>
</svg>